<?xml version="1.0" standalone="no"?>
<!DOCTYPE svg PUBLIC "-//W3C//DTD SVG 20010904//EN"
 "http://www.w3.org/TR/2001/REC-SVG-20010904/DTD/svg10.dtd">
<svg version="1.0" xmlns="http://www.w3.org/2000/svg"
 width="200.000000pt" height="200.000000pt" viewBox="0 0 200.000000 200.000000"
 preserveAspectRatio="xMidYMid meet">
<metadata>
Created by potrace 1.10, written by Peter Selinger 2001-2011
</metadata>
<g transform="translate(0.000000,200.000000) scale(0.100000,-0.100000)"
fill="#000000" stroke="none">
<path d="M228 1804 c-3 -5 53 -72 125 -149 72 -77 164 -175 204 -219 41 -43
76 -76 80 -73 3 4 -75 93 -173 198 -99 105 -191 205 -205 222 -14 17 -28 26
-31 21z" fill="red"/>
<path d="M1572 1603 l-202 -208 3 158 2 157 -92 0 -92 0 -3 -80 -3 -80 -95
122 c-52 67 -98 122 -101 122 -11 1 -678 -858 -673 -866 3 -5 61 -8 130 -8
l124 0 0 -175 0 -175 -182 -185 c-99 -102 -178 -189 -174 -193 4 -4 28 16 53
43 40 43 305 315 307 315 1 0 0 -61 -2 -135 l-3 -135 410 0 411 0 0 125 c0 69
3 125 8 124 4 0 40 -37 80 -82 124 -140 281 -302 282 -292 0 13 -348 389 -363
393 -9 2 -11 53 -9 187 l3 185 134 0 c74 0 135 4 135 9 0 5 -65 93 -145 195
-119 152 -145 192 -145 219 0 28 19 51 161 192 172 171 267 275 252 275 -6 0
-100 -93 -211 -207z m-470 11 l113 -146 3 106 3 106 64 0 64 0 3 -160 c2 -94
-1 -160 -6 -160 -5 0 -89 -81 -185 -181 l-176 -181 -158 171 c-87 94 -166 171
-175 172 -14 0 -13 2 3 9 11 4 90 98 175 208 85 111 156 201 157 201 1 1 53
-65 115 -145z m248 -297 c0 -20 182 -268 253 -344 l20 -23 -129 0 -129 0 3
-182 3 -183 -24 25 c-25 26 -284 306 -325 352 l-25 27 169 174 c93 96 172 175
177 176 4 0 7 -9 7 -22z m-535 -158 l158 -170 -49 -52 c-27 -29 -111 -115
-186 -193 l-138 -141 0 173 0 173 -119 3 -120 3 146 188 c80 103 147 187 148
187 0 0 72 -77 160 -171z m360 -389 c103 -110 190 -198 194 -196 3 2 5 -58 3
-135 l-3 -139 -385 0 -384 0 0 140 0 139 191 196 c105 107 193 195 195 195 1
0 87 -90 189 -200z" fill="red"/>
</g>
</svg>
